<?xml version="1.0" encoding="utf-8"?><svg viewBox="0 0 100 100" xmlns="http://www.w3.org/2000/svg" width="200px" height="200px" xmlns:xlink="http://www.w3.org/1999/xlink" style="width:100%;height:100%;background-size:initial;background-repeat-y:initial;background-repeat-x:initial;background-position-y:initial;background-position-x:initial;background-origin:initial;background-color:initial;background-clip:initial;background-attachment:initial;animation-play-state:paused" ><g class="ldl-scale" style="transform-origin:50% 50%;transform:rotate(0deg) scale(0.8, 0.8);animation-play-state:paused" ><path fill="#e15b64" d="M65.368 50.566c2.74 2.74 3.812 6.477 3.197 9.889-.124.69-.029 1.425.407 1.973.557.7 1.417.97 2.209.813l9.364-9.364a5.483 5.483 0 0 0 0-7.755l-8.402-8.402c-.687-.687-.947-1.742-.53-2.619a2.241 2.241 0 0 1 2.457-1.259c3.457.681 7.272-.381 10.056-3.165 4.326-4.326 4.519-11.146.432-15.233s-10.908-3.894-15.233.432c-2.784 2.784-3.847 6.599-3.165 10.056a2.241 2.241 0 0 1-1.259 2.457c-.877.417-1.932.156-2.619-.53l-8.402-8.402a5.483 5.483 0 0 0-7.755 0l-8.402 8.402c-.687.687-1.742.947-2.619.53a2.241 2.241 0 0 1-1.259-2.457c.681-3.457-.381-7.272-3.165-10.056-4.326-4.326-11.146-4.519-15.233-.432s-3.894 10.908.432 15.233c2.784 2.784 6.599 3.847 10.056 3.165a2.241 2.241 0 0 1 2.457 1.259c.417.877.156 1.932-.53 2.619l-8.402 8.402a5.483 5.483 0 0 0 0 7.755l8.402 8.402c.687.687.947 1.742.53 2.619a2.241 2.241 0 0 1-2.457 1.259c-3.457-.681-7.272.381-10.056 3.165-4.326 4.326-4.519 11.146-.432 15.233s10.908 3.894 15.233-.432c2.784-2.784 3.847-6.599 3.165-10.056a2.241 2.241 0 0 1 1.259-2.457c.877-.417 1.932-.156 2.619.53l8.402 8.402a5.483 5.483 0 0 0 7.755 0l9.364-9.364a2.253 2.253 0 0 0-.813-2.209c-.548-.436-1.283-.531-1.973-.407-3.412.615-7.15-.457-9.889-3.197-4.326-4.326-4.519-11.146-.432-15.233s10.905-3.892 15.231.434z" style="fill:rgb(204, 184, 151);animation-play-state:paused" ></path>
<metadata xmlns:d="https://loading.io/stock/" style="animation-play-state:paused" ><d:name style="animation-play-state:paused" >puzzle</d:name>


<d:tags style="animation-play-state:paused" >puzzle,maze,solve,detective,piece,key,tile</d:tags>


<d:license style="animation-play-state:paused" >by</d:license>


<d:slug style="animation-play-state:paused" >6fhwuf</d:slug></metadata></g><!-- generated by https://loading.io/ --></svg>